# xmcd
#
# Track frame offsets: 
#        150
#        18441
#        32856
#        47191
#        64522
#        87795
#        102731
#        119660
#        138701
#        156463
#
# Disc length: 2314 seconds
#
# Revision: 0
# Processed by: cddbd v1.5.2PL0 Copyright (c) Steve Scherf et al.
# Submitted via: ExactAudioCopy v0.99pb5
#
DISCID=9109080a
DTITLE=Sam Hunt - Montevallo
DYEAR=2014
DGENRE=Country
TTITLE0=Take Your Time
TTITLE1=Leave the Night On
TTITLE2=House Party
TTITLE3=Break Up in a Small Town
TTITLE4=Single for the Summer
TTITLE5=Ex to See
TTITLE6=Make You Miss Me
TTITLE7=Cop Car
TTITLE8=Raised On It
TTITLE9=Speakers
EXTD=
EXTT0=
EXTT1=
EXTT2=
EXTT3=
EXTT4=
EXTT5=
EXTT6=
EXTT7=
EXTT8=
EXTT9=
PLAYORDER=
